<svg width="307" height="77" viewBox="0 0 307 77" fill="none" xmlns="http://www.w3.org/2000/svg">
<path d="M189.484 9.35547H196.48V54.8477H222.637V61H189.484V9.35547Z" fill="#0f172a"/>
<path d="M270.148 9.17969H276.301V27.918C277.684 26.1133 279.336 24.7422 281.258 23.8047C283.18 22.8438 285.266 22.3633 287.516 22.3633C292.203 22.3633 296 23.9805 298.906 27.2148C301.836 30.4258 303.301 35.1719 303.301 41.4531C303.301 47.4062 301.859 52.3516 298.977 56.2891C296.094 60.2266 292.098 62.1953 286.988 62.1953C284.129 62.1953 281.715 61.5039 279.746 60.1211C278.574 59.3008 277.32 57.9883 275.984 56.1836V61H270.148V9.17969ZM286.602 56.6055C290.023 56.6055 292.578 55.2461 294.266 52.5273C295.977 49.8086 296.832 46.2227 296.832 41.7695C296.832 37.8086 295.977 34.5273 294.266 31.9258C292.578 29.3242 290.082 28.0234 286.777 28.0234C283.895 28.0234 281.363 29.0898 279.184 31.2227C277.027 33.3555 275.949 36.8711 275.949 41.7695C275.949 45.3086 276.395 48.1797 277.285 50.3828C278.949 54.5312 282.055 56.6055 286.602 56.6055Z" fill="#0f172a"/>
<path d="M234.492 50.9805C234.492 52.8086 235.16 54.25 236.496 55.3047C237.832 56.3594 239.414 56.8867 241.242 56.8867C243.469 56.8867 245.625 56.3711 247.711 55.3398C251.227 53.6289 252.984 50.8281 252.984 46.9375V41.8398C252.211 42.332 251.215 42.7422 249.996 43.0703C248.777 43.3984 247.582 43.6328 246.41 43.7734L242.578 44.2656C240.281 44.5703 238.559 45.0508 237.41 45.707C235.465 46.8086 234.492 48.5664 234.492 50.9805ZM249.82 38.1836C251.273 37.9961 252.246 37.3867 252.738 36.3555C253.02 35.793 253.16 34.9844 253.16 33.9297C253.16 31.7734 252.387 30.2148 250.84 29.2539C249.316 28.2695 247.125 27.7773 244.266 27.7773C240.961 27.7773 238.617 28.668 237.234 30.4492C236.461 31.4336 235.957 32.8984 235.723 34.8438H229.816C229.934 30.2031 231.434 26.9805 234.316 25.1758C237.223 23.3477 240.586 22.4336 244.406 22.4336C248.836 22.4336 252.434 23.2773 255.199 24.9648C257.941 26.6523 259.312 29.2773 259.312 32.8398V54.5312C259.312 55.1875 259.441 55.7148 259.699 56.1133C259.98 56.5117 260.555 56.7109 261.422 56.7109C261.703 56.7109 262.02 56.6992 262.371 56.6758C262.723 56.6289 263.098 56.5703 263.496 56.5V61.1758C262.512 61.457 261.762 61.6328 261.246 61.7031C260.73 61.7734 260.027 61.8086 259.137 61.8086C256.957 61.8086 255.375 61.0352 254.391 59.4883C253.875 58.668 253.512 57.5078 253.301 56.0078C252.012 57.6953 250.16 59.1602 247.746 60.4023C245.332 61.6445 242.672 62.2656 239.766 62.2656C236.273 62.2656 233.414 61.2109 231.188 59.1016C228.984 56.9688 227.883 54.3086 227.883 51.1211C227.883 47.6289 228.973 44.9219 231.152 43C233.332 41.0781 236.191 39.8945 239.73 39.4492L249.82 38.1836Z" fill="#0f172a"/>
<path d="M154.832 9.17969H170.406V61H160.316V25.9492C160.316 24.9414 160.328 23.5352 160.352 21.7305C160.375 19.9023 160.387 18.4961 160.387 17.5117L150.578 61H140.066L130.328 17.5117C130.328 18.4961 130.34 19.9023 130.363 21.7305C130.387 23.5352 130.398 24.9414 130.398 25.9492V61H120.309V9.17969H136.059L145.48 49.9258L154.832 9.17969Z" fill="#0f172a"/>
<path d="M91.1289 52.7734C93.4727 52.7734 95.4531 51.8945 97.0703 50.1367C98.6875 48.3555 99.4961 45.5312 99.4961 41.6641C99.4961 38.0312 98.7227 35.2656 97.1758 33.3672C95.6523 31.4688 93.6016 30.5195 91.0234 30.5195C87.5078 30.5195 85.082 32.1719 83.7461 35.4766C83.043 37.2344 82.6914 39.4023 82.6914 41.9805C82.6914 44.207 83.0664 46.1875 83.8164 47.9219C85.1758 51.1562 87.6133 52.7734 91.1289 52.7734ZM88.6328 21.7656C90.5547 21.7656 92.2305 22.0586 93.6602 22.6445C96.0977 23.6523 98.0664 25.5039 99.5664 28.1992V22.6797H109.305V59.0312C109.305 63.9766 108.473 67.7031 106.809 70.2109C103.949 74.5234 98.4648 76.6797 90.3555 76.6797C85.457 76.6797 81.4609 75.7188 78.3672 73.7969C75.2734 71.875 73.5625 69.0039 73.2344 65.1836H84.1328C84.4141 66.3555 84.8711 67.1992 85.5039 67.7148C86.582 68.6289 88.3984 69.0859 90.9531 69.0859C94.5625 69.0859 96.9766 67.8789 98.1953 65.4648C98.9922 63.918 99.3906 61.3164 99.3906 57.6602V55.1992C98.4297 56.8398 97.3984 58.0703 96.2969 58.8906C94.3047 60.4141 91.7148 61.1758 88.5273 61.1758C83.6055 61.1758 79.668 59.4531 76.7148 56.0078C73.7852 52.5391 72.3203 47.8516 72.3203 41.9453C72.3203 36.25 73.7383 31.4688 76.5742 27.6016C79.4102 23.7109 83.4297 21.7656 88.6328 21.7656Z" fill="#0f172a"/>
<path d="M63.9766 18.1094H53.8164V8.86328H63.9766V18.1094ZM53.8164 22.6797H63.9766V61H53.8164V22.6797Z" fill="#0f172a"/>
<path d="M13.3242 45.0039C13.6523 47.3711 14.2969 49.1406 15.2578 50.3125C17.0156 52.4453 20.0273 53.5117 24.293 53.5117C26.8477 53.5117 28.9219 53.2305 30.5156 52.668C33.5391 51.5898 35.0508 49.5859 35.0508 46.6562C35.0508 44.9453 34.3008 43.6211 32.8008 42.6836C31.3008 41.7695 28.9453 40.9609 25.7344 40.2578L20.25 39.0273C14.8594 37.8086 11.1328 36.4844 9.07031 35.0547C5.57812 32.6641 3.83203 28.9258 3.83203 23.8398C3.83203 19.1992 5.51953 15.3437 8.89453 12.2734C12.2695 9.20313 17.2266 7.66797 23.7656 7.66797C29.2266 7.66797 33.8789 9.12109 37.7227 12.0273C41.5898 14.9102 43.6172 19.1055 43.8047 24.6133H33.3984C33.2109 21.4961 31.8516 19.2812 29.3203 17.9688C27.6328 17.1016 25.5352 16.668 23.0273 16.668C20.2383 16.668 18.0117 17.2305 16.3477 18.3555C14.6836 19.4805 13.8516 21.0508 13.8516 23.0664C13.8516 24.918 14.6719 26.3008 16.3125 27.2148C17.3672 27.8242 19.6172 28.5391 23.0625 29.3594L31.9922 31.5039C35.9062 32.4414 38.8594 33.6953 40.8516 35.2656C43.9453 37.7031 45.4922 41.2305 45.4922 45.8477C45.4922 50.582 43.6758 54.5195 40.043 57.6602C36.4336 60.7773 31.3242 62.3359 24.7148 62.3359C17.9648 62.3359 12.6562 60.8008 8.78906 57.7305C4.92188 54.6367 2.98828 50.3945 2.98828 45.0039H13.3242Z" fill="#0f172a"/>
</svg>
